<svg xmlns="http://www.w3.org/2000/svg" xmlns:xlink="http://www.w3.org/1999/xlink" width="180" zoomAndPan="magnify" viewBox="0 0 300 119.999999" height="60" preserveAspectRatio="xMidYMid meet" version="1.0"><defs><g/><clipPath id="d156f31514"><path d="M 21.792969 35 L 36 35 L 36 78 L 21.792969 78 Z M 21.792969 35 " clip-rule="nonzero"/></clipPath><clipPath id="da659c7558"><path d="M 40 25.722656 L 65 25.722656 L 65 92 L 40 92 Z M 40 25.722656 " clip-rule="nonzero"/></clipPath><clipPath id="c7d1ae6f74"><path d="M 264 35 L 278.410156 35 L 278.410156 78 L 264 78 Z M 264 35 " clip-rule="nonzero"/></clipPath><clipPath id="a172a07811"><path d="M 235 25.722656 L 260 25.722656 L 260 92 L 235 92 Z M 235 25.722656 " clip-rule="nonzero"/></clipPath></defs><g clip-path="url(#d156f31514)"><path fill="#ffb800" d="M 26.324219 77.753906 L 35.816406 77.753906 L 35.816406 35.050781 L 26.324219 35.050781 C 21.582031 35.050781 21.582031 38.152344 21.582031 39.796875 L 21.582031 73.011719 C 21.582031 74.652344 21.582031 77.753906 26.324219 77.753906 Z M 26.324219 77.753906 " fill-opacity="1" fill-rule="nonzero"/></g><g clip-path="url(#da659c7558)"><path fill="#ffb800" d="M 40.5625 37.421875 L 40.5625 87.246094 C 40.5625 88.886719 40.5625 91.988281 45.304688 91.988281 L 59.921875 91.988281 C 64.285156 91.988281 64.285156 88.886719 64.285156 87.246094 L 64.285156 30.304688 C 64.285156 28.664062 64.285156 25.5625 59.921875 25.5625 L 45.304688 25.5625 C 40.5625 25.5625 40.5625 28.664062 40.5625 30.304688 Z M 40.5625 37.421875 " fill-opacity="1" fill-rule="nonzero"/></g><g clip-path="url(#c7d1ae6f74)"><path fill="#ffb800" d="M 264.175781 77.753906 L 273.664062 77.753906 C 278.410156 77.753906 278.410156 74.652344 278.410156 73.011719 L 278.410156 39.796875 C 278.410156 38.152344 278.410156 35.050781 273.664062 35.050781 L 264.175781 35.050781 Z M 264.175781 77.753906 " fill-opacity="1" fill-rule="nonzero"/></g><g clip-path="url(#a172a07811)"><path fill="#ffb800" d="M 235.703125 67.078125 L 235.703125 87.246094 C 235.703125 88.886719 235.703125 91.988281 240.449219 91.988281 L 254.683594 91.988281 C 259.429688 91.988281 259.429688 88.886719 259.429688 87.246094 L 259.429688 30.304688 C 259.429688 28.664062 259.429688 25.5625 254.683594 25.5625 L 240.449219 25.5625 C 235.703125 25.5625 235.703125 28.664062 235.703125 30.304688 Z M 235.703125 67.078125 " fill-opacity="1" fill-rule="nonzero"/></g><g fill="#ffffff" fill-opacity="1"><g transform="translate(88.062186, 67.343882)"><g><path d="M 1.765625 -17.71875 L 6.78125 -17.71875 L 6.78125 -3.96875 L 15.234375 -3.96875 L 15.234375 0 L 1.765625 0 Z M 1.765625 -17.71875 "/></g></g></g><g fill="#ffffff" fill-opacity="1"><g transform="translate(103.501451, 67.343882)"><g><path d="M 1.546875 -13.71875 L 6.359375 -13.71875 L 6.359375 0 L 1.546875 0 Z M 3.953125 -15.234375 C 3.078125 -15.234375 2.367188 -15.476562 1.828125 -15.96875 C 1.285156 -16.457031 1.015625 -17.066406 1.015625 -17.796875 C 1.015625 -18.523438 1.285156 -19.128906 1.828125 -19.609375 C 2.367188 -20.097656 3.078125 -20.34375 3.953125 -20.34375 C 4.828125 -20.34375 5.535156 -20.109375 6.078125 -19.640625 C 6.617188 -19.179688 6.890625 -18.59375 6.890625 -17.875 C 6.890625 -17.113281 6.617188 -16.484375 6.078125 -15.984375 C 5.535156 -15.484375 4.828125 -15.234375 3.953125 -15.234375 Z M 3.953125 -15.234375 "/></g></g></g><g fill="#ffffff" fill-opacity="1"><g transform="translate(111.423573, 67.343882)"><g><path d="M 6.78125 -13.21875 L 10.046875 -13.21875 L 10.046875 -9.625 L 6.90625 -9.625 L 6.90625 0 L 2.09375 0 L 2.09375 -9.625 L 0.09375 -9.625 L 0.09375 -13.21875 L 2.09375 -13.21875 L 2.09375 -13.5625 C 2.09375 -15.238281 2.59375 -16.566406 3.59375 -17.546875 C 4.601562 -18.523438 6.015625 -19.015625 7.828125 -19.015625 C 8.429688 -19.015625 9.019531 -18.953125 9.59375 -18.828125 C 10.164062 -18.710938 10.640625 -18.535156 11.015625 -18.296875 L 9.828125 -14.90625 C 9.347656 -15.175781 8.863281 -15.3125 8.375 -15.3125 C 7.875 -15.3125 7.484375 -15.160156 7.203125 -14.859375 C 6.921875 -14.554688 6.78125 -14.109375 6.78125 -13.515625 Z M 6.78125 -13.21875 "/></g></g></g><g fill="#ffffff" fill-opacity="1"><g transform="translate(121.699538, 67.343882)"><g><path d="M 11.015625 -0.5625 C 10.609375 -0.300781 10.113281 -0.101562 9.53125 0.03125 C 8.945312 0.164062 8.328125 0.234375 7.671875 0.234375 C 5.878906 0.234375 4.5 -0.203125 3.53125 -1.078125 C 2.570312 -1.960938 2.09375 -3.273438 2.09375 -5.015625 L 2.09375 -9.625 L 0.09375 -9.625 L 0.09375 -13.21875 L 2.09375 -13.21875 L 2.09375 -16.78125 L 6.90625 -16.78125 L 6.90625 -13.21875 L 10.046875 -13.21875 L 10.046875 -9.625 L 6.90625 -9.625 L 6.90625 -5.0625 C 6.90625 -4.570312 7.035156 -4.1875 7.296875 -3.90625 C 7.554688 -3.632812 7.910156 -3.5 8.359375 -3.5 C 8.910156 -3.5 9.398438 -3.640625 9.828125 -3.921875 Z M 11.015625 -0.5625 "/></g></g></g><g fill="#ffb800" fill-opacity="1"><g transform="translate(133.027078, 67.343882)"><g><path d="M 9.515625 -4.703125 L 6.78125 -4.703125 L 6.78125 0 L 1.765625 0 L 1.765625 -17.71875 L 9.875 -17.71875 C 11.476562 -17.71875 12.867188 -17.453125 14.046875 -16.921875 C 15.222656 -16.390625 16.132812 -15.628906 16.78125 -14.640625 C 17.425781 -13.648438 17.75 -12.488281 17.75 -11.15625 C 17.75 -9.875 17.445312 -8.753906 16.84375 -7.796875 C 16.25 -6.847656 15.394531 -6.101562 14.28125 -5.5625 L 18.09375 0 L 12.734375 0 Z M 12.6875 -11.15625 C 12.6875 -11.988281 12.421875 -12.628906 11.890625 -13.078125 C 11.367188 -13.535156 10.59375 -13.765625 9.5625 -13.765625 L 6.78125 -13.765625 L 6.78125 -8.578125 L 9.5625 -8.578125 C 10.59375 -8.578125 11.367188 -8.800781 11.890625 -9.25 C 12.421875 -9.695312 12.6875 -10.332031 12.6875 -11.15625 Z M 12.6875 -11.15625 "/></g></g></g><g fill="#ffb800" fill-opacity="1"><g transform="translate(151.756677, 67.343882)"><g><path d="M 8.421875 0.234375 C 6.960938 0.234375 5.640625 -0.0664062 4.453125 -0.671875 C 3.273438 -1.285156 2.351562 -2.128906 1.6875 -3.203125 C 1.019531 -4.285156 0.6875 -5.515625 0.6875 -6.890625 C 0.6875 -8.234375 1.019531 -9.445312 1.6875 -10.53125 C 2.351562 -11.613281 3.269531 -12.453125 4.4375 -13.046875 C 5.613281 -13.648438 6.941406 -13.953125 8.421875 -13.953125 C 9.910156 -13.953125 11.242188 -13.648438 12.421875 -13.046875 C 13.609375 -12.453125 14.53125 -11.617188 15.1875 -10.546875 C 15.84375 -9.472656 16.171875 -8.253906 16.171875 -6.890625 C 16.171875 -5.515625 15.84375 -4.285156 15.1875 -3.203125 C 14.53125 -2.128906 13.609375 -1.285156 12.421875 -0.671875 C 11.242188 -0.0664062 9.910156 0.234375 8.421875 0.234375 Z M 8.421875 -3.59375 C 9.265625 -3.59375 9.957031 -3.882812 10.5 -4.46875 C 11.039062 -5.050781 11.3125 -5.859375 11.3125 -6.890625 C 11.3125 -7.898438 11.039062 -8.691406 10.5 -9.265625 C 9.957031 -9.835938 9.265625 -10.125 8.421875 -10.125 C 7.578125 -10.125 6.882812 -9.835938 6.34375 -9.265625 C 5.8125 -8.691406 5.546875 -7.898438 5.546875 -6.890625 C 5.546875 -5.859375 5.8125 -5.050781 6.34375 -4.46875 C 6.882812 -3.882812 7.578125 -3.59375 8.421875 -3.59375 Z M 8.421875 -3.59375 "/></g></g></g><g fill="#ffb800" fill-opacity="1"><g transform="translate(168.613325, 67.343882)"><g><path d="M 8.421875 0.234375 C 6.960938 0.234375 5.640625 -0.0664062 4.453125 -0.671875 C 3.273438 -1.285156 2.351562 -2.128906 1.6875 -3.203125 C 1.019531 -4.285156 0.6875 -5.515625 0.6875 -6.890625 C 0.6875 -8.234375 1.019531 -9.445312 1.6875 -10.53125 C 2.351562 -11.613281 3.269531 -12.453125 4.4375 -13.046875 C 5.613281 -13.648438 6.941406 -13.953125 8.421875 -13.953125 C 9.910156 -13.953125 11.242188 -13.648438 12.421875 -13.046875 C 13.609375 -12.453125 14.53125 -11.617188 15.1875 -10.546875 C 15.84375 -9.472656 16.171875 -8.253906 16.171875 -6.890625 C 16.171875 -5.515625 15.84375 -4.285156 15.1875 -3.203125 C 14.53125 -2.128906 13.609375 -1.285156 12.421875 -0.671875 C 11.242188 -0.0664062 9.910156 0.234375 8.421875 0.234375 Z M 8.421875 -3.59375 C 9.265625 -3.59375 9.957031 -3.882812 10.5 -4.46875 C 11.039062 -5.050781 11.3125 -5.859375 11.3125 -6.890625 C 11.3125 -7.898438 11.039062 -8.691406 10.5 -9.265625 C 9.957031 -9.835938 9.265625 -10.125 8.421875 -10.125 C 7.578125 -10.125 6.882812 -9.835938 6.34375 -9.265625 C 5.8125 -8.691406 5.546875 -7.898438 5.546875 -6.890625 C 5.546875 -5.859375 5.8125 -5.050781 6.34375 -4.46875 C 6.882812 -3.882812 7.578125 -3.59375 8.421875 -3.59375 Z M 8.421875 -3.59375 "/></g></g></g><g fill="#ffb800" fill-opacity="1"><g transform="translate(185.469972, 67.343882)"><g><path d="M 19.421875 -13.953125 C 21.109375 -13.953125 22.453125 -13.441406 23.453125 -12.421875 C 24.453125 -11.410156 24.953125 -9.882812 24.953125 -7.84375 L 24.953125 0 L 20.15625 0 L 20.15625 -7.0625 C 20.15625 -8.019531 19.972656 -8.726562 19.609375 -9.1875 C 19.242188 -9.644531 18.734375 -9.875 18.078125 -9.875 C 17.347656 -9.875 16.765625 -9.617188 16.328125 -9.109375 C 15.890625 -8.609375 15.671875 -7.84375 15.671875 -6.8125 L 15.671875 0 L 10.859375 0 L 10.859375 -7.0625 C 10.859375 -8.9375 10.164062 -9.875 8.78125 -9.875 C 8.039062 -9.875 7.453125 -9.617188 7.015625 -9.109375 C 6.578125 -8.609375 6.359375 -7.84375 6.359375 -6.8125 L 6.359375 0 L 1.546875 0 L 1.546875 -13.71875 L 6.125 -13.71875 L 6.125 -12.28125 C 6.632812 -12.832031 7.238281 -13.25 7.9375 -13.53125 C 8.632812 -13.8125 9.394531 -13.953125 10.21875 -13.953125 C 11.1875 -13.953125 12.050781 -13.773438 12.8125 -13.421875 C 13.570312 -13.066406 14.1875 -12.523438 14.65625 -11.796875 C 15.195312 -12.484375 15.878906 -13.015625 16.703125 -13.390625 C 17.535156 -13.765625 18.441406 -13.953125 19.421875 -13.953125 Z M 19.421875 -13.953125 "/></g></g></g></svg>